<?xml version="1.0" standalone="no"?><!DOCTYPE svg PUBLIC "-//W3C//DTD SVG 1.1//EN" "http://www.w3.org/Graphics/SVG/1.1/DTD/svg11.dtd"><svg t="1640738788628" class="icon" viewBox="0 0 1024 1024" version="1.1" xmlns="http://www.w3.org/2000/svg" p-id="1239" xmlns:xlink="http://www.w3.org/1999/xlink" width="16" height="16"><defs><style type="text/css"></style></defs><path d="M648.30645161 164.15725806c-9.19959678 0-18.39919355 9.25403226-18.39919355 23.02620969v50.62499999H348.9657258c-73.70564516 0-142.7842742 27.7076613-193.46370967 82.95967743C106.83669354 369.37903226 75.15524193 439.32862903 76.78830645 506.01209677c-0.05443549 4.19153226-0.16330646 8.38306452-0.16330645 12.62903226a280.34274194 280.34274194 0 0 0 268.53024194 280.125l11.8125 0.21774194h310.28225806a280.34274194 280.34274194 0 0 0 268.74798388-360.36290323 35.38306452 35.38306452 0 0 0-67.82661292 20.14112903 209.5766129 209.5766129 0 0 1-190.14314515 269.18346775l-10.77822581 0.27217742h-310.28225806a209.5766129 209.5766129 0 0 1-47.30443549-413.76411291c11.32258065-1.90524194 22.86290323-2.88508065 34.67540323-2.88508064h285.56854838v50.625c0 13.8266129 9.25403226 23.02620968 18.39919355 23.02620968 4.62701613 0 9.25403226 0 13.82661291-4.57258065l129.01209677-87.53225806c9.19959678-4.57258065 13.77217742-9.19959678 13.77217742-18.39919355 0-9.25403226-4.57258065-13.8266129-13.82661291-23.02620968l-128.95766128-82.90524193c-4.57258065-4.62701613-9.19959678-4.62701613-13.82661291-4.62701614z" p-id="1240" fill="#707070"></path></svg>