<?xml version="1.0" standalone="no"?><!DOCTYPE svg PUBLIC "-//W3C//DTD SVG 1.1//EN" "http://www.w3.org/Graphics/SVG/1.1/DTD/svg11.dtd"><svg t="1640771021025" class="icon" viewBox="0 0 1024 1024" version="1.1" xmlns="http://www.w3.org/2000/svg" p-id="2163" width="32" height="32" xmlns:xlink="http://www.w3.org/1999/xlink"><defs><style type="text/css"></style></defs><path d="M963.3762638 206.4472086c-50.73754839-57.87838816-115.380943-103.16634839-186.78934516-130.79012473a37.4706187 37.4706187 0 0 0-51.11338171 34.95253334v462.83919139a195.99726988 195.99726988 0 0 0-122.14594946-42.65712365c-108.80385376 0-197.31268818 88.50883441-197.31268817 197.31268818S494.52373371 925.4170613 603.32758747 925.4170613s197.31268818-88.50883441 197.31268817-197.31268817c0-2.06708493-0.18791721-4.13417097-0.37583442-6.20125592 0-1.12750108 0.37583332-2.06708493 0.37583442-3.19458711V169.80342366c39.83837096 22.36210429 76.10632258 51.67713225 106.3609344 86.06591504 13.71793012 15.59709784 37.58336881 17.10043334 52.99255054 3.38250323 15.59709784-13.5300129 17.10043334-37.20753548 3.38250322-52.80463333zM603.32758747 850.25032258c-67.27423119 0-122.14594945-54.87171936-122.14595056-122.14594945s54.87171936-122.14594945 122.14595056-122.14595055 122.14594945 54.87171936 122.14594946 122.14595055-54.87171936 122.14594945-122.14594946 122.14594945zM105.34794553 286.49978495h432.20874515c20.67085268 0 37.58336881-16.91251613 37.58336991-37.58336882s-16.91251613-37.58336881-37.58336991-37.58336991h-432.20874515a37.58336881 37.58336881 0 1 0 0 75.16673873zM368.43152939 455.62494624h-263.08358386c-20.67085268 0-37.58336881 16.91251613-37.58336881 37.58336881s16.91251613 37.58336881 37.58336881 37.5833699h263.08358386c20.67085268 0 37.58336881-16.91251613 37.58336991-37.5833699s-16.91251613-37.58336881-37.58336991-37.58336881zM255.68142186 699.91684625h-150.33347633c-20.67085268 0-37.58336881 16.91251613-37.58336881 37.5833688s16.91251613 37.58336881 37.58336881 37.58336882h150.33347633c20.67085268 0 37.58336881-16.91251613 37.58336991-37.58336882s-16.91251613-37.58336881-37.58336991-37.5833688z" p-id="2164" fill="#ffffff"></path></svg>