<?xml version="1.0" standalone="no"?><!DOCTYPE svg PUBLIC "-//W3C//DTD SVG 1.1//EN" "http://www.w3.org/Graphics/SVG/1.1/DTD/svg11.dtd"><svg t="1640446383071" class="icon" viewBox="0 0 1025 1024" version="1.1" xmlns="http://www.w3.org/2000/svg" p-id="1410" width="32.03125" height="32" xmlns:xlink="http://www.w3.org/1999/xlink"><defs><style type="text/css"></style></defs><path d="M635.54734356 145.03254628a22.73623242 22.73623242 0 0 1 15.3015706-5.7056704 23.08203018 23.08203018 0 0 1 22.99558095 23.08203018V527.13956445l69.15964132 69.15964131V162.40890606a92.24167148 92.24167148 0 0 0-152.92925684-69.15964132L403.17094971 256.46601816l49.01689511 49.016896zM951.86625313 902.93576416l-829.91569483-829.91569395-1.72899052-1.7289914a34.57982021 34.57982021 0 1 0-47.20145538 50.65943731l166.76118457 166.67473534A138.31928262 138.31928262 0 0 0 143.56294648 420.20146865v192.60960117a138.31928262 138.31928262 0 0 0 138.31928262 130.19302442H374.12389971l216.1238792 188.89226982 5.44632187 4.49537696a92.24167148 92.24167148 0 0 0 147.48293496-73.9143668v-70.6292833l159.93166993 160.01812002a34.57982021 34.57982021 0 0 0 48.93044589-48.93044678z m-278.02175801-40.45838994v3.89022979a23.34137872 23.34137872 0 0 1-5.35987178 11.32489159 22.99558096 22.99558096 0 0 1-32.50503193 2.16123838l-216.12387832-188.89226982-5.61922119-4.49537695a69.15964131 69.15964131 0 0 0-39.93969288-12.62163428H275.31206299a69.15964131 69.15964131 0 0 1-62.5894752-69.15964131v-191.0535082a69.15964131 69.15964131 0 0 1 69.15964132-62.58947608h20.31564462l371.73307061 371.73307149z" fill="#707070" p-id="1411"></path></svg>