<?xml version="1.0" standalone="no"?><!DOCTYPE svg PUBLIC "-//W3C//DTD SVG 1.1//EN" "http://www.w3.org/Graphics/SVG/1.1/DTD/svg11.dtd"><svg t="1640270202392" class="icon" viewBox="0 0 1024 1024" version="1.1" xmlns="http://www.w3.org/2000/svg" p-id="2917" width="16" height="16" xmlns:xlink="http://www.w3.org/1999/xlink"><defs><style type="text/css"></style></defs><path d="M124.65774209 652.2950207h0.11510925a34.53274209 34.53274209 0 0 1 34.53274211 34.53274209V893.58680102a34.53274209 34.53274209 0 0 1-34.53274211 34.5327421H124.65774209a34.53274209 34.53274209 0 0 1-34.53274209-34.5327421V686.82776279a34.53274209 34.53274209 0 0 1 34.53274209-34.5327421z" p-id="2918" fill="#707070"></path><path d="M125.80883381 859.15765725h207.7144442a34.53274209 34.53274209 0 0 1 34.53274211 34.5327421 34.53274209 34.53274209 0 0 1-34.53274211 34.5327421H125.80883381a34.53274209 34.53274209 0 0 1-34.53274211-34.5327421 34.53274209 34.53274209 0 0 1 34.5327421-34.5327421z" p-id="2919" fill="#707070"></path><path d="M101.24454312 916.49352012a34.39461099 34.39461099 0 0 1 0.79425302-48.74872166l281.67206672-271.76116992a34.53274209 34.53274209 0 1 1 48.11562075 49.49693097L150.15441689 917.28777313a34.67087319 34.67087319 0 0 1-48.90987377-0.79425301zM899.23865957 94.729366h0.10359834a34.53274209 34.53274209 0 0 1 34.53274209 34.53274209v206.77054916a34.53274209 34.53274209 0 0 1-34.53274209 34.53274211h-0.10359834a34.53274209 34.53274209 0 0 1-34.53274209-34.53274211V129.26210809a34.53274209 34.53274209 0 0 1 34.53274209-34.53274209z" p-id="2920" fill="#707070"></path><path d="M690.47672199 94.729366H898.19116619a34.53274209 34.53274209 0 0 1 34.53274211 34.53274209 34.53274209 34.53274209 0 0 1-34.5327421 34.5327421H690.47672199a34.53274209 34.53274209 0 0 1-34.53274211-34.5327421 34.53274209 34.53274209 0 0 1 34.5327421-34.53274209z" p-id="2921" fill="#707070"></path><path d="M922.75545688 106.35538901a34.39461099 34.39461099 0 0 1-0.79425302 48.74872082l-281.67206672 271.77268085a34.53274209 34.53274209 0 1 1-48.11562075-49.49693015l281.67206671-271.76116992a34.67087319 34.67087319 0 0 1 48.90987378 0.7366984zM130.41319898 90.125h206.75903823a34.53274209 34.53274209 0 0 1 34.5327421 34.53274209v0.10359834a34.53274209 34.53274209 0 0 1-34.53274209 34.53274209H130.41319898a34.53274209 34.53274209 0 0 1-34.5327421-34.53274209V124.65774209A34.53274209 34.53274209 0 0 1 130.41319898 90.125z" p-id="2922" fill="#707070"></path><path d="M130.41319898 91.2760917a34.53274209 34.53274209 0 0 1 34.53274209 34.53274211v207.771998a34.53274209 34.53274209 0 0 1-34.53274209 34.53274292 34.53274209 34.53274209 0 0 1-34.5327421-34.53274292V125.80883381A34.53274209 34.53274209 0 0 1 130.41319898 91.2760917z" p-id="2923" fill="#707070"></path><path d="M107.50647988 101.24454312a34.39461099 34.39461099 0 0 1 48.74872166 0.79425302l271.76116992 281.67206672a34.53274209 34.53274209 0 1 1-49.49693097 48.11562075L106.71222687 150.15441689a34.67087319 34.67087319 0 0 1 0.79425301-48.90987377zM687.96734275 864.70591748H894.73789191a34.53274209 34.53274209 0 0 1 34.53274209 34.53274209v0.10359834a34.53274209 34.53274209 0 0 1-34.53274209 34.53274209H687.96734275a34.53274209 34.53274209 0 0 1-34.53274211-34.53274209v-0.10359834a34.53274209 34.53274209 0 0 1 34.53274211-34.53274209z" p-id="2924" fill="#707070"></path><path d="M894.73789191 655.99002358a34.53274209 34.53274209 0 0 1 34.53274209 34.53274211V898.19116619a34.53274209 34.53274209 0 0 1-34.53274209 34.53274211 34.53274209 34.53274209 0 0 1-34.5327421-34.5327421V690.47672199a34.53274209 34.53274209 0 0 1 34.5327421-34.48669841z" p-id="2925" fill="#707070"></path><path d="M917.64461099 922.75545688a34.39461099 34.39461099 0 0 1-48.74872082-0.79425302l-271.77268085-281.67206672a34.53274209 34.53274209 0 1 1 49.49693015-48.11562075l271.76116992 281.67206671a34.67087319 34.67087319 0 0 1-0.7366984 48.90987378z" p-id="2926" fill="#707070"></path></svg>