<?xml version="1.0" standalone="no"?><!DOCTYPE svg PUBLIC "-//W3C//DTD SVG 1.1//EN" "http://www.w3.org/Graphics/SVG/1.1/DTD/svg11.dtd"><svg t="1640770983367" class="icon" viewBox="0 0 1024 1024" version="1.1" xmlns="http://www.w3.org/2000/svg" p-id="1675" width="32" height="32" xmlns:xlink="http://www.w3.org/1999/xlink"><defs><style type="text/css"></style></defs><path d="M420.97777813 113.77777813v796.44444374a56.95288853 56.95288853 0 0 1-56.8888896 56.8888896H250.31111147a56.95288853 56.95288853 0 0 1-56.8888896-56.8888896V113.77777813a56.95288853 56.95288853 0 0 1 56.8888896-56.8888896h113.77777706a56.95288853 56.95288853 0 0 1 56.8888896 56.8888896z m352.7111104-56.8888896H659.91111147a56.95288853 56.95288853 0 0 0-56.8888896 56.8888896v796.44444374a56.95288853 56.95288853 0 0 0 56.8888896 56.8888896h113.77777706a56.95288853 56.95288853 0 0 0 56.8888896-56.8888896V113.77777813a56.95288853 56.95288853 0 0 0-56.8888896-56.8888896z" fill="#e6e6e6" p-id="1676"></path></svg>