<?xml version="1.0" standalone="no"?><!DOCTYPE svg PUBLIC "-//W3C//DTD SVG 1.1//EN" "http://www.w3.org/Graphics/SVG/1.1/DTD/svg11.dtd"><svg t="1640675572496" class="icon" viewBox="0 0 1024 1024" version="1.1" xmlns="http://www.w3.org/2000/svg" p-id="1686" width="16" height="16" xmlns:xlink="http://www.w3.org/1999/xlink"><defs><style type="text/css"></style></defs><path d="M512 512a50.1 50.1 0 0 0 16.3125 36.94999969l340.00000031 309.9375a49.53124969 49.53124969 0 0 0 33.48124969 13.125 50.475 50.475 0 0 0 20.4-4.37499938 49.37500031 49.37500031 0 0 0 29.80624969-45.74375062V202.06875031A49.99999969 49.99999969 0 0 0 868.31874969 165.125l-339.99999938 309.9375A50.1 50.1 0 0 0 512 512zM88.33125031 475.05000031l339.99999938-309.9375A49.99999969 49.99999969 0 0 1 512 202.06875031v619.86249938a49.37500031 49.37500031 0 0 1-29.80624969 45.74375062 50.475 50.475 0 0 1-20.4 4.37499938 49.53124969 49.53124969 0 0 1-33.48125062-13.125l-339.99999938-309.9375a49.99999969 49.99999969 0 0 1 0-73.89999938z" fill="#707070" p-id="1687"></path></svg>