<?xml version="1.0" standalone="no"?><!DOCTYPE svg PUBLIC "-//W3C//DTD SVG 1.1//EN" "http://www.w3.org/Graphics/SVG/1.1/DTD/svg11.dtd"><svg t="1640446741852" class="icon" viewBox="0 0 1024 1024" version="1.1" xmlns="http://www.w3.org/2000/svg" p-id="1750" width="32" height="32" xmlns:xlink="http://www.w3.org/1999/xlink"><defs><style type="text/css"></style></defs><path d="M963.76888889 717.86666667L838.11555555 602.45333333c-9.28-8.53333333-24.21333333-1.92-24.21333333 10.66666667V699.73333333c-74.13333333-1.92-142.93333333-42.34666667-180.58666667-106.45333333l-48.10666666-82.13333333 50.13333333-85.54666667c37.22666667-63.57333333 105.17333333-103.89333333 178.56-106.45333333v64.10666666c0 12.58666667 14.93333333 19.09333333 24.21333333 10.66666667l125.65333334-115.30666667c6.18666667-5.76 6.18666667-15.57333333 0-21.22666666L838.11555555 141.86666667c-9.28-8.53333333-24.21333333-1.92-24.21333333 10.66666666v81.06666667H797.15555555c-5.01333333 0-9.92 0.85333333-14.4 2.45333333-38.93333333 5.01333333-76.8 17.70666667-111.04 37.33333334-45.44 26.02666667-83.52 63.78666667-109.97333333 109.01333333L535.82222222 426.66666667l-25.92-44.26666667c-26.45333333-45.22666667-64.53333333-82.88-109.97333333-109.01333333C354.48888889 247.36 302.75555555 233.6 250.27555555 233.6H100.62222222c-23.57333333 0-42.66666667 19.09333333-42.66666667 42.66666667s19.09333333 42.66666667 42.66666667 42.66666666h149.65333333c76.16 0 147.52 40.85333333 186.02666667 106.56l50.13333333 85.54666667-48.10666666 82.13333333c-38.61333333 65.81333333-109.86666667 106.56-186.02666667 106.56H100.62222222c-23.57333333 0-42.66666667 19.09333333-42.66666667 42.66666667s19.09333333 42.66666667 42.66666667 42.66666667l151.46666667 0.10666666h0.21333333c52.37333333 0 104.10666667-13.76 149.54666667-39.78666666 45.54666667-26.02666667 83.52-63.78666667 110.08-109.01333334l23.89333333-40.85333333 23.89333333 40.85333333c26.45333333 45.22666667 64.53333333 82.98666667 110.08 109.01333334 35.30666667 20.16 74.24 32.96 114.45333334 37.76 4.05333333 1.28 8.32 1.92 12.69333333 1.92l16.96 0.10666666v58.66666667c0 12.58666667 14.93333333 19.09333333 24.21333333 10.66666667L963.76888889 739.2c6.29333333-5.86666667 6.29333333-15.68 0-21.33333333z" fill="#707070" p-id="1751"></path></svg>