<?xml version="1.0" standalone="no"?><!DOCTYPE svg PUBLIC "-//W3C//DTD SVG 1.1//EN" "http://www.w3.org/Graphics/SVG/1.1/DTD/svg11.dtd"><svg t="1640272935757" class="icon" viewBox="0 0 1024 1024" version="1.1" xmlns="http://www.w3.org/2000/svg" p-id="1135" width="16" height="16" xmlns:xlink="http://www.w3.org/1999/xlink"><defs><style type="text/css"></style></defs><path d="M804.52646563 302.38687021a31.38921474 31.38921474 0 0 0-43.34701114 20.04689268 39.83001152 39.83001152 0 0 0 12.57327158 41.41266153 44.84173535 44.84173535 0 0 0 8.79249639 6.41852314 152.90152383 152.90152383 0 0 1 13.71629531 8.79249639 164.15592011 164.15592011 0 0 1-13.89214511 274.67760849 44.84173535 44.84173535 0 0 0-8.79249727 6.41852314 39.91793643 39.91793643 0 0 0-12.5732707 41.41266153A31.47713964 31.47713964 0 0 0 804.52646563 721.43727998a234.49589648 234.49589648 0 0 0-1e-8-419.31418535zM544.00477695 85.38804248l-219.81242636 192.20398594H222.37523458A140.67995273 140.67995273 0 0 0 89.96022881 418.27198115v195.80890958a140.67995273 140.67995273 0 0 0 140.67995273 132.41500575h93.81594375l219.81242724 192.11606104 5.62719815 4.57209844a93.81594375 93.81594375 0 0 0 149.47245-75.17584952V148.60609648a93.90386865 93.90386865 0 0 0-155.36342373-63.218054z m85.19929717 782.53223906a23.47596738 23.47596738 0 0 1-38.8628376 17.58499365l-219.81242636-192.11606103a70.33997637 70.33997637 0 0 0-46.33645957-17.58499366H230.64018154a70.33997637 70.33997637 0 0 1-70.33997636-70.33997636V418.27198115a70.33997637 70.33997637 0 0 1 70.33997636-70.33997636h93.81594375a70.33997637 70.33997637 0 0 0 46.33645958-17.58499453l219.81242724-192.20398594a23.38804248 23.38804248 0 0 1 38.86283672 17.58499453z" p-id="1136" fill="#707070"></path></svg>